<?xml version="1.0" encoding="utf-8"?>
<!-- Generator: Adobe Illustrator 16.0.0, SVG Export Plug-In . SVG Version: 6.00 Build 0)  -->
<!DOCTYPE svg PUBLIC "-//W3C//DTD SVG 1.1//EN" "http://www.w3.org/Graphics/SVG/1.1/DTD/svg11.dtd">
<svg version="1.1" id="Capa_1" xmlns="http://www.w3.org/2000/svg" xmlns:xlink="http://www.w3.org/1999/xlink" x="0px" y="0px"
	 width="471.455px" height="471.455px" viewBox="70.272 160.272 471.455 471.455"
	 enable-background="new 70.272 160.272 471.455 471.455" xml:space="preserve">
<circle fill="#F4F4F4" cx="306.002" cy="396" r="234.279"/>
<g>
	<path fill="#E33114" d="M422.986,191.309c-34.475-19.745-74.41-31.036-116.986-31.036c-21.465,0-42.253,2.886-62.015,8.261
		C223.691,247.255,244.354,334.354,306,396C306,308.821,352.975,232.624,422.986,191.309z"/>
	<path fill="#E33114" d="M306,396c-87.178,0-163.375-46.975-204.691-116.987C81.563,313.487,70.272,353.424,70.272,396
		c0,21.465,2.886,42.252,8.261,62.016c78.72,20.294,165.817-0.37,227.463-62.014c0,87.178-46.973,163.373-116.982,204.689
		c34.474,19.745,74.41,31.036,116.985,31.036c21.465,0,42.252-2.886,62.015-8.261c20.295-78.721-0.368-165.821-62.013-227.467
		c87.179,0,163.375,46.974,204.69,116.983c19.745-34.474,31.035-74.409,31.035-116.983c0-21.464-2.886-42.251-8.261-62.013
		C454.746,313.693,367.646,334.354,306,396z"/>
</g>
</svg>
